HIERARCHY
ROOT mixamorig:Hips
{
	OFFSET 0.000000 201.639420 0.000000
	CHANNELS 6 Xposition Yposition Zposition Xrotation Yrotation Zrotation
	JOINT mixamorig:Spine
	{
		OFFSET 0.006200 19.524994 -2.481800
		CHANNELS 3 Xrotation Yrotation Zrotation
		JOINT mixamorig:Spine1
		{
			OFFSET -0.000900 22.835007 -2.825400
			CHANNELS 3 Xrotation Yrotation Zrotation
			JOINT mixamorig:Spine2
			{
				OFFSET -0.020600 26.552490 -3.193300
				CHANNELS 3 Xrotation Yrotation Zrotation
				JOINT mixamorig:Neck
				{
					OFFSET -0.060000 30.701813 1.352200
					CHANNELS 3 Xrotation Yrotation Zrotation
					JOINT mixamorig:Head
					{
						OFFSET -0.087200 22.547607 3.670900
						CHANNELS 3 Xrotation Yrotation Zrotation
						JOINT mixamorig:HeadTop_End
						{
							OFFSET -0.830600 40.355194 7.893500
							CHANNELS 3 Xrotation Yrotation Zrotation
							End Site
							{
								OFFSET 0.000000 30.592346 0.000000
							}
						}
						JOINT mixamorig:RightEye
						{
							OFFSET -6.302100 18.118591 16.197100
							CHANNELS 3 Xrotation Yrotation Zrotation
							End Site
							{
								OFFSET 0.000000 30.592346 0.000000
							}
						}
						JOINT mixamorig:LeftEye
						{
							OFFSET 6.741500 18.382690 16.401899
							CHANNELS 3 Xrotation Yrotation Zrotation
							End Site
							{
								OFFSET 0.000000 30.592346 0.000000
							}
						}
					}
				}
				JOINT mixamorig:LeftShoulder
				{
					OFFSET 11.924900 18.230499 1.425400
					CHANNELS 3 Xrotation Yrotation Zrotation
					JOINT mixamorig:LeftArm
					{
						OFFSET 25.435989 -0.697632 -5.229300
						CHANNELS 3 Xrotation Yrotation Zrotation
						JOINT mixamorig:LeftForeArm
						{
							OFFSET 54.684776 0.000000 0.000000
							CHANNELS 3 Xrotation Yrotation Zrotation
							JOINT mixamorig:LeftHand
							{
								OFFSET 55.098175 0.000000 0.000000
								CHANNELS 3 Xrotation Yrotation Zrotation
								JOINT mixamorig:LeftHandMiddle1
								{
									OFFSET 23.369751 0.000000 0.000000
									CHANNELS 3 Xrotation Yrotation Zrotation
									JOINT mixamorig:LeftHandMiddle2
									{
										OFFSET 6.378677 0.000000 0.000000
										CHANNELS 3 Xrotation Yrotation Zrotation
										JOINT mixamorig:LeftHandMiddle3
										{
											OFFSET 6.148331 0.000000 0.000000
											CHANNELS 3 Xrotation Yrotation Zrotation
											JOINT mixamorig:LeftHandMiddle4
											{
												OFFSET 6.582504 0.000000 0.000000
												CHANNELS 3 Xrotation Yrotation Zrotation
												End Site
												{
													OFFSET -1.168900 6.395691 1.028606
												}
											}
										}
									}
								}
								JOINT mixamorig:LeftHandThumb1
								{
									OFFSET 7.235672 -3.848206 5.434273
									CHANNELS 3 Xrotation Yrotation Zrotation
									JOINT mixamorig:LeftHandThumb2
									{
										OFFSET 6.568451 -3.792297 3.792300
										CHANNELS 3 Xrotation Yrotation Zrotation
										JOINT mixamorig:LeftHandThumb3
										{
											OFFSET 6.063080 -3.500519 3.500518
											CHANNELS 3 Xrotation Yrotation Zrotation
											JOINT mixamorig:LeftHandThumb4
											{
												OFFSET 4.793182 -2.767334 2.767349
												CHANNELS 3 Xrotation Yrotation Zrotation
												End Site
												{
													OFFSET 0.101639 6.054260 1.275483
												}
											}
										}
									}
								}
								JOINT mixamorig:LeftHandIndex1
								{
									OFFSET 23.101074 -0.309540 4.992809
									CHANNELS 3 Xrotation Yrotation Zrotation
									JOINT mixamorig:LeftHandIndex2
									{
										OFFSET 6.226883 0.000000 0.000000
										CHANNELS 3 Xrotation Yrotation Zrotation
										JOINT mixamorig:LeftHandIndex3
										{
											OFFSET 6.094330 0.000000 0.000000
											CHANNELS 3 Xrotation Yrotation Zrotation
											JOINT mixamorig:LeftHandIndex4
											{
												OFFSET 5.482605 0.000000 0.000000
												CHANNELS 3 Xrotation Yrotation Zrotation
												End Site
												{
													OFFSET -1.427902 5.233032 0.797164
												}
											}
										}
									}
								}
								JOINT mixamorig:LeftHandRing1
								{
									OFFSET 22.299240 0.021149 -3.964172
									CHANNELS 3 Xrotation Yrotation Zrotation
									JOINT mixamorig:LeftHandRing2
									{
										OFFSET 6.321869 0.000000 0.000000
										CHANNELS 3 Xrotation Yrotation Zrotation
										JOINT mixamorig:LeftHandRing3
										{
											OFFSET 5.899796 0.000000 0.000000
											CHANNELS 3 Xrotation Yrotation Zrotation
											JOINT mixamorig:LeftHandRing4
											{
												OFFSET 6.517899 0.000000 0.000000
												CHANNELS 3 Xrotation Yrotation Zrotation
												End Site
												{
													OFFSET -1.637299 6.232208 0.980890
												}
											}
										}
									}
								}
								JOINT mixamorig:LeftHandPinky1
								{
									OFFSET 20.463791 -0.302338 -8.562233
									CHANNELS 3 Xrotation Yrotation Zrotation
									JOINT mixamorig:LeftHandPinky2
									{
										OFFSET 6.908646 0.000000 0.000000
										CHANNELS 3 Xrotation Yrotation Zrotation
										JOINT mixamorig:LeftHandPinky3
										{
											OFFSET 4.622849 0.000000 0.000000
											CHANNELS 3 Xrotation Yrotation Zrotation
											JOINT mixamorig:LeftHandPinky4
											{
												OFFSET 5.216080 0.000000 0.000000
												CHANNELS 3 Xrotation Yrotation Zrotation
												End Site
												{
													OFFSET -0.606308 5.116241 0.814926
												}
											}
										}
									}
								}
							}
						}
					}
				}
				JOINT mixamorig:RightShoulder
				{
					OFFSET -12.001300 18.284088 1.348900
					CHANNELS 3 Xrotation Yrotation Zrotation
					JOINT mixamorig:RightArm
					{
						OFFSET -25.308500 -0.751312 -5.164599
						CHANNELS 3 Xrotation Yrotation Zrotation
						JOINT mixamorig:RightForeArm
						{
							OFFSET -54.684429 0.000000 0.000000
							CHANNELS 3 Xrotation Yrotation Zrotation
							JOINT mixamorig:RightHand
							{
								OFFSET -55.150291 0.000000 0.000000
								CHANNELS 3 Xrotation Yrotation Zrotation
								JOINT mixamorig:RightHandMiddle1
								{
									OFFSET -23.317566 0.000000 0.000000
									CHANNELS 3 Xrotation Yrotation Zrotation
									JOINT mixamorig:RightHandMiddle2
									{
										OFFSET -6.378403 0.000000 0.000000
										CHANNELS 3 Xrotation Yrotation Zrotation
										JOINT mixamorig:RightHandMiddle3
										{
											OFFSET -6.148193 0.000000 0.000000
											CHANNELS 3 Xrotation Yrotation Zrotation
											JOINT mixamorig:RightHandMiddle4
											{
												OFFSET -6.583389 0.000000 0.000000
												CHANNELS 3 Xrotation Yrotation Zrotation
												End Site
												{
													OFFSET 1.171692 6.395905 1.029786
												}
											}
										}
									}
								}
								JOINT mixamorig:RightHandThumb1
								{
									OFFSET -7.190521 -3.860474 5.435846
									CHANNELS 3 Xrotation Yrotation Zrotation
									JOINT mixamorig:RightHandThumb2
									{
										OFFSET -6.567429 -3.791718 3.791708
										CHANNELS 3 Xrotation Yrotation Zrotation
										JOINT mixamorig:RightHandThumb3
										{
											OFFSET -6.062469 -3.500153 3.500166
											CHANNELS 3 Xrotation Yrotation Zrotation
											JOINT mixamorig:RightHandThumb4
											{
												OFFSET -4.792618 -2.767029 2.767022
												CHANNELS 3 Xrotation Yrotation Zrotation
												End Site
												{
													OFFSET -0.100327 6.053253 1.276754
												}
											}
										}
									}
								}
								JOINT mixamorig:RightHandIndex1
								{
									OFFSET -23.048981 -0.310791 4.992554
									CHANNELS 3 Xrotation Yrotation Zrotation
									JOINT mixamorig:RightHandIndex2
									{
										OFFSET -6.227539 0.000000 0.000000
										CHANNELS 3 Xrotation Yrotation Zrotation
										JOINT mixamorig:RightHandIndex3
										{
											OFFSET -6.095047 0.000000 0.000000
											CHANNELS 3 Xrotation Yrotation Zrotation
											JOINT mixamorig:RightHandIndex4
											{
												OFFSET -5.484772 0.000000 0.000000
												CHANNELS 3 Xrotation Yrotation Zrotation
												End Site
												{
													OFFSET 1.420593 5.237305 0.797056
												}
											}
										}
									}
								}
								JOINT mixamorig:RightHandRing1
								{
									OFFSET -22.246323 0.020569 -3.963762
									CHANNELS 3 Xrotation Yrotation Zrotation
									JOINT mixamorig:RightHandRing2
									{
										OFFSET -6.322128 0.000000 0.000000
										CHANNELS 3 Xrotation Yrotation Zrotation
										JOINT mixamorig:RightHandRing3
										{
											OFFSET -5.900024 0.000000 0.000000
											CHANNELS 3 Xrotation Yrotation Zrotation
											JOINT mixamorig:RightHandRing4
											{
												OFFSET -6.518356 0.000000 0.000000
												CHANNELS 3 Xrotation Yrotation Zrotation
												End Site
												{
													OFFSET 1.636398 6.232697 0.982186
												}
											}
										}
									}
								}
								JOINT mixamorig:RightHandPinky1
								{
									OFFSET -20.411011 -0.303314 -8.561701
									CHANNELS 3 Xrotation Yrotation Zrotation
									JOINT mixamorig:RightHandPinky2
									{
										OFFSET -6.907349 0.000000 0.000000
										CHANNELS 3 Xrotation Yrotation Zrotation
										JOINT mixamorig:RightHandPinky3
										{
											OFFSET -4.623840 0.000000 0.000000
											CHANNELS 3 Xrotation Yrotation Zrotation
											JOINT mixamorig:RightHandPinky4
											{
												OFFSET -5.218353 0.000000 0.000000
												CHANNELS 3 Xrotation Yrotation Zrotation
												End Site
												{
													OFFSET 0.602097 5.118835 0.816273
												}
											}
										}
									}
								}
							}
						}
					}
				}
			}
		}
	}
	JOINT mixamorig:LeftUpLeg
	{
		OFFSET 18.168400 -13.561905 -0.039000
		CHANNELS 3 Xrotation Yrotation Zrotation
		JOINT mixamorig:LeftLeg
		{
			OFFSET 0.577358 -80.825211 -3.695000
			CHANNELS 3 Xrotation Yrotation Zrotation
			JOINT mixamorig:LeftFoot
			{
				OFFSET -0.577356 -83.370262 -6.520700
				CHANNELS 3 Xrotation Yrotation Zrotation
				JOINT mixamorig:LeftToeBase
				{
					OFFSET 0.750401 -20.798306 25.135401
					CHANNELS 3 Xrotation Yrotation Zrotation
					JOINT mixamorig:LeftToe_End
					{
						OFFSET -0.000500 0.001200 19.917799
						CHANNELS 3 Xrotation Yrotation Zrotation
						End Site
						{
							OFFSET 0.000000 19.917805 0.000000
						}
					}
				}
			}
		}
	}
	JOINT mixamorig:RightUpLeg
	{
		OFFSET -18.162500 -13.585098 -0.041000
		CHANNELS 3 Xrotation Yrotation Zrotation
		JOINT mixamorig:RightLeg
		{
			OFFSET -0.595024 -80.945297 -3.631900
			CHANNELS 3 Xrotation Yrotation Zrotation
			JOINT mixamorig:RightFoot
			{
				OFFSET 0.595024 -83.218193 -6.561200
				CHANNELS 3 Xrotation Yrotation Zrotation
				JOINT mixamorig:RightToeBase
				{
					OFFSET -0.753601 -20.807106 25.115000
					CHANNELS 3 Xrotation Yrotation Zrotation
					JOINT mixamorig:RightToe_End
					{
						OFFSET 0.000299 0.001700 19.918200
						CHANNELS 3 Xrotation Yrotation Zrotation
						End Site
						{
							OFFSET 0.000000 19.918203 0.000000
						}
					}
				}
			}
		}
	}
}
MOTION
Frames: 6
Frame Time: 0.033333
-78.135788 184.980240 102.376129 -9.022915 1.607836 -0.241444 23.387688 -2.366301 0.866068 4.472358 -0.449883 0.084131 4.472849 -0.446659 0.075367 2.118130 -1.035840 -0.395733 -21.204044 -7.113369 2.578794 -0.000000 -0.000000 -0.000000 -0.000000 -0.000000 -0.000000 -0.000000 -0.000000 -0.000000 2.633593 -17.412753 -0.312173 10.232538 -64.222110 34.105426 0.000001 -2.255391 0.000000 -32.978568 -6.020778 14.730234 0.918456 -4.484076 14.076134 0.537955 2.672719 -22.756712 0.384055 2.271575 -19.189802 -0.000001 -0.000000 0.000000 43.826780 -5.588434 9.703331 0.450779 8.291082 5.612560 1.610288 9.173782 1.999150 0.000002 0.000001 -0.000002 0.468875 -19.177706 0.278807 1.752092 4.593403 -41.739696 0.952164 3.498740 -30.439633 0.000000 -0.000001 0.000003 -2.991796 9.678526 16.544602 0.882170 3.377005 -29.272452 0.724476 3.079315 -26.472877 0.000001 -0.000001 0.000002 -1.242791 20.653377 4.788910 0.838504 -0.781412 -28.802214 0.781103 3.190320 -27.508160 -0.000001 0.000000 -0.000001 1.960193 27.133531 3.398144 -50.515014 62.982055 18.461527 -0.000005 3.556450 0.000003 -5.399944 6.112220 -6.111664 0.528829 2.664402 -22.369177 0.831887 -3.302992 28.265899 0.489536 -2.548128 21.441120 0.000000 0.000000 0.000001 22.387719 -8.861410 -1.262628 8.665476 -0.404325 -6.785877 3.757400 -1.294377 -1.733671 0.000002 -0.000001 0.000000 0.754749 15.283860 -1.978867 0.982080 -3.567742 30.771887 1.187704 -3.891700 33.931953 -0.000001 -0.000001 -0.000001 -1.015194 -4.454580 -11.553673 0.561039 -2.740968 23.131836 0.221597 -1.717648 14.259169 0.000002 0.000001 -0.000002 1.380527 -8.553465 9.420699 0.390686 -2.302095 19.261041 0.918811 -3.459523 29.739624 -0.000001 -0.000003 0.000003 0.371121 16.987604 23.152110 17.380251 -9.910056 7.948214 -13.935425 -2.339543 -25.911100 -0.205633 -0.000002 0.000008 -0.000000 -0.000000 -0.000000 -12.966640 -13.539214 -21.268222 32.858824 8.970066 -9.202581 -11.432850 -2.619614 20.837288 -1.239202 0.000001 0.000004 0.000000 0.000001 0.000000 
-77.819069 184.869019 102.678619 -9.085815 1.529059 -0.045665 22.976514 -2.390643 0.708141 4.396549 -0.449839 0.051901 4.396964 -0.447479 0.043190 1.957074 -0.985362 -0.461848 -20.647793 -6.833693 2.478575 -0.000000 -0.000001 0.000000 -0.000000 -0.000001 0.000000 -0.000000 -0.000001 0.000000 2.575339 -17.423959 -0.545431 10.846830 -64.328450 34.861852 -0.000000 -2.189025 0.000001 -33.008511 -6.032560 15.058491 0.918454 -4.484070 14.076137 0.537946 2.672703 -22.756717 0.384054 2.271598 -19.189799 -0.000001 -0.000000 0.000000 43.826780 -5.588441 9.703340 0.450788 8.291109 5.612560 1.610264 9.173760 1.999159 0.000000 0.000002 -0.000001 0.468870 -19.177723 0.278804 1.752097 4.593415 -41.739696 0.952153 3.498712 -30.439643 -0.000001 0.000001 -0.000002 -2.991794 9.678533 16.544598 0.882157 3.377008 -29.272452 0.724483 3.079306 -26.472869 0.000000 0.000001 -0.000000 -1.242801 20.653413 4.788935 0.838505 -0.781440 -28.802238 0.781099 3.190325 -27.508158 0.000001 0.000001 -0.000001 1.936553 27.220042 3.516462 -50.646655 62.696977 19.031088 -0.000007 3.529713 -0.000000 -5.961304 6.105501 -6.020208 0.528829 2.664400 -22.369177 0.831888 -3.303011 28.265888 0.489541 -2.548125 21.441125 -0.000001 0.000000 -0.000001 22.387719 -8.861411 -1.262631 8.665470 -0.404292 -6.785870 3.757405 -1.294394 -1.733676 -0.000001 0.000000 0.000000 0.754740 15.283892 -1.978850 0.982078 -3.567752 30.771887 1.187708 -3.891694 33.931939 0.000002 -0.000000 -0.000003 -1.015187 -4.454616 -11.553676 0.561042 -2.740968 23.131827 0.221591 -1.717650 14.259164 -0.000004 -0.000000 0.000001 1.380529 -8.553454 9.420711 0.390685 -2.302094 19.261036 0.918814 -3.459520 29.739617 -0.000001 -0.000000 -0.000002 0.397163 16.934829 23.034314 17.901632 -9.908384 7.676435 -14.267077 -2.211118 -25.630386 -0.204787 -0.000003 0.000001 -0.000000 0.000000 0.000000 -13.097193 -13.473751 -21.466829 33.313479 8.955401 -9.379631 -11.909575 -2.783551 20.249325 -1.252576 -0.000002 0.000001 -0.000000 0.000001 -0.000000 
-77.623878 184.686981 102.893089 -9.005218 1.607800 0.105045 22.444787 -2.391365 0.638496 4.296556 -0.447784 0.037135 4.296948 -0.445850 0.028527 1.754133 -0.937671 -0.581476 -20.203158 -6.626950 2.335794 -0.000000 -0.000000 0.000000 -0.000000 -0.000000 0.000000 -0.000000 -0.000000 0.000000 2.511282 -17.418456 -0.796911 11.543325 -64.435486 35.683234 0.000002 -2.173440 -0.000000 -32.882460 -5.945376 15.154551 0.918467 -4.484061 14.076137 0.537960 2.672701 -22.756724 0.384053 2.271575 -19.189804 -0.000001 0.000000 0.000001 43.826790 -5.588424 9.703331 0.450773 8.291101 5.612566 1.610265 9.173760 1.999158 0.000004 -0.000000 -0.000000 0.468866 -19.177728 0.278802 1.752094 4.593413 -41.739682 0.952155 3.498731 -30.439626 0.000003 0.000001 -0.000000 -2.991786 9.678519 16.544591 0.882157 3.377012 -29.272442 0.724495 3.079303 -26.472869 -0.000001 -0.000000 0.000001 -1.242788 20.653394 4.788920 0.838495 -0.781420 -28.802225 0.781100 3.190332 -27.508160 0.000000 -0.000000 -0.000001 1.918730 27.341218 3.623817 -50.828492 62.241977 19.596207 -0.000007 3.483028 0.000008 -6.339787 6.028304 -5.894642 0.528829 2.664406 -22.369173 0.831884 -3.302994 28.265893 0.489544 -2.548124 21.441133 0.000005 0.000000 -0.000000 22.387716 -8.861399 -1.262635 8.665477 -0.404286 -6.785870 3.757402 -1.294404 -1.733673 0.000001 -0.000002 -0.000001 0.754735 15.283882 -1.978856 0.982082 -3.567775 30.771870 1.187691 -3.891674 33.931949 -0.000002 -0.000001 0.000002 -1.015190 -4.454596 -11.553682 0.561042 -2.740958 23.131839 0.221590 -1.717650 14.259164 -0.000000 -0.000001 0.000000 1.380531 -8.553445 9.420699 0.390684 -2.302102 19.261045 0.918813 -3.459517 29.739624 0.000000 0.000000 0.000001 0.129267 16.638990 22.934107 18.641400 -9.843904 7.594095 -14.666486 -2.075881 -25.474825 -0.270418 0.000003 0.000002 0.000000 -0.000000 -0.000000 -13.237954 -13.343867 -21.519696 33.723864 8.933849 -9.562757 -12.509894 -3.173677 19.740782 -1.216869 0.000005 -0.000000 -0.000000 0.000000 0.000000 
-77.580643 184.468155 102.954903 -8.941818 1.811118 0.149710 22.059769 -2.343084 0.701213 4.224821 -0.441357 0.046427 4.225173 -0.439618 0.037786 1.539239 -0.902939 -0.690125 -19.954867 -6.457169 2.138142 0.000000 0.000001 -0.000000 0.000000 0.000001 -0.000000 0.000000 0.000001 -0.000000 2.483141 -17.374282 -0.896255 12.038891 -64.556974 36.284765 0.000001 -2.191661 0.000003 -32.672439 -5.941398 15.157397 0.918456 -4.484059 14.076140 0.537951 2.672690 -22.756729 0.384054 2.271578 -19.189806 -0.000003 -0.000001 0.000001 43.826786 -5.588433 9.703334 0.450786 8.291086 5.612581 1.610267 9.173776 1.999146 0.000002 0.000001 -0.000000 0.468878 -19.177716 0.278804 1.752094 4.593405 -41.739692 0.952151 3.498713 -30.439619 -0.000002 0.000002 0.000002 -2.991790 9.678525 16.544588 0.882173 3.377015 -29.272456 0.724483 3.079319 -26.472854 -0.000003 0.000000 -0.000000 -1.242795 20.653396 4.788920 0.838515 -0.781412 -28.802211 0.781096 3.190327 -27.508175 -0.000001 0.000001 0.000001 1.906476 27.442211 3.703276 -51.209859 61.788657 20.154903 -0.000005 3.479624 0.000002 -6.440155 5.928180 -5.907152 0.528832 2.664408 -22.369189 0.831897 -3.303005 28.265886 0.489537 -2.548131 21.441125 0.000003 0.000000 0.000001 22.387719 -8.861420 -1.262632 8.665469 -0.404264 -6.785878 3.757406 -1.294392 -1.733672 -0.000002 -0.000000 -0.000000 0.754753 15.283889 -1.978857 0.982088 -3.567783 30.771863 1.187709 -3.891679 33.931953 0.000001 0.000000 -0.000001 -1.015191 -4.454588 -11.553685 0.561059 -2.740998 23.131839 0.221591 -1.717627 14.259177 -0.000003 0.000000 0.000001 1.380537 -8.553454 9.420701 0.390682 -2.302083 19.261048 0.918816 -3.459538 29.739614 0.000001 0.000000 -0.000001 -0.324030 16.335874 23.009710 19.436468 -9.721682 7.652414 -15.070346 -2.183646 -25.488611 -0.344808 0.000001 -0.000002 0.000000 0.000000 0.000000 -13.217851 -13.285864 -21.467054 33.924242 8.911977 -9.683108 -13.035010 -3.525898 19.573917 -1.084565 0.000002 0.000006 -0.000000 0.000000 -0.000000 
-77.698769 184.297607 102.853584 -9.035600 2.090332 0.159189 21.994534 -2.284979 0.801949 4.214339 -0.434469 0.062050 4.214637 -0.432818 0.053244 1.336085 -0.892737 -0.721850 -19.882355 -6.330723 1.953764 -0.000000 0.000001 -0.000000 -0.000000 0.000001 -0.000000 -0.000000 0.000001 -0.000000 2.497010 -17.343213 -0.832932 12.236853 -64.624347 36.639156 -0.000000 -2.201510 0.000001 -32.447486 -6.035491 15.164424 0.918469 -4.484080 14.076129 0.537953 2.672713 -22.756713 0.384060 2.271590 -19.189801 -0.000001 0.000000 0.000000 43.826780 -5.588433 9.703333 0.450783 8.291071 5.612573 1.610268 9.173769 1.999156 0.000005 0.000002 0.000003 0.468874 -19.177716 0.278807 1.752086 4.593412 -41.739682 0.952161 3.498706 -30.439640 -0.000001 -0.000001 -0.000004 -2.991793 9.678535 16.544593 0.882165 3.377008 -29.272449 0.724471 3.079303 -26.472881 -0.000000 -0.000001 -0.000001 -1.242793 20.653386 4.788927 0.838508 -0.781433 -28.802228 0.781088 3.190332 -27.508182 0.000001 -0.000001 -0.000001 1.899980 27.512880 3.750968 -51.669708 61.473649 20.539998 0.000005 3.493863 0.000001 -6.488477 5.951778 -6.036570 0.528819 2.664393 -22.369191 0.831886 -3.302987 28.265899 0.489544 -2.548134 21.441120 0.000004 -0.000000 -0.000001 22.387717 -8.861426 -1.262636 8.665471 -0.404289 -6.785872 3.757397 -1.294383 -1.733672 -0.000001 0.000001 0.000002 0.754743 15.283887 -1.978868 0.982080 -3.567765 30.771867 1.187696 -3.891686 33.931946 0.000003 0.000004 -0.000003 -1.015197 -4.454613 -11.553688 0.561045 -2.740953 23.131841 0.221585 -1.717621 14.259173 -0.000003 0.000000 0.000000 1.380523 -8.553459 9.420693 0.390679 -2.302096 19.261048 0.918822 -3.459543 29.739617 0.000000 0.000001 -0.000002 -0.659621 16.208225 23.204261 19.915016 -9.598041 7.746568 -15.299735 -2.600255 -25.640011 -0.382784 -0.000003 0.000006 -0.000000 -0.000000 -0.000000 -12.979344 -13.320575 -21.458817 33.879821 8.941485 -9.730520 -13.084021 -3.673702 20.153735 -0.969431 -0.000006 0.000003 -0.000000 -0.000001 -0.000000 
-77.934769 184.268326 102.635414 -9.222962 2.395316 0.187984 22.136588 -2.239286 0.887094 4.242054 -0.428773 0.076744 4.242350 -0.426905 0.067780 1.183276 -0.909342 -0.676880 -19.940121 -6.287928 1.839212 -0.000000 0.000000 -0.000000 -0.000000 0.000000 -0.000000 -0.000000 0.000000 -0.000000 2.541071 -17.340421 -0.657665 12.189752 -64.655438 36.750096 0.000001 -2.197749 0.000002 -32.234180 -6.139916 15.252420 0.918460 -4.484073 14.076125 0.537962 2.672713 -22.756718 0.384049 2.271578 -19.189802 0.000002 -0.000000 0.000000 43.826786 -5.588425 9.703325 0.450778 8.291090 5.612588 1.610282 9.173760 1.999149 0.000003 0.000003 0.000000 0.468874 -19.177720 0.278811 1.752093 4.593411 -41.739686 0.952160 3.498720 -30.439633 -0.000003 0.000001 -0.000000 -2.991780 9.678512 16.544590 0.882163 3.377018 -29.272446 0.724484 3.079310 -26.472872 0.000001 -0.000001 0.000002 -1.242792 20.653389 4.788919 0.838498 -0.781420 -28.802221 0.781101 3.190332 -27.508158 0.000000 -0.000001 0.000002 1.891977 27.568938 3.799609 -52.083686 61.306473 20.734523 0.000001 3.501450 -0.000007 -6.608698 6.131511 -6.178415 0.528830 2.664393 -22.369187 0.831894 -3.302984 28.265896 0.489536 -2.548111 21.441132 0.000003 0.000000 0.000001 22.387723 -8.861411 -1.262629 8.665472 -0.404298 -6.785881 3.757397 -1.294398 -1.733673 0.000000 0.000000 -0.000002 0.754750 15.283877 -1.978862 0.982077 -3.567769 30.771887 1.187691 -3.891681 33.931946 0.000002 0.000002 -0.000004 -1.015191 -4.454597 -11.553672 0.561045 -2.740975 23.131839 0.221594 -1.717642 14.259164 -0.000001 -0.000000 0.000000 1.380530 -8.553469 9.420700 0.390683 -2.302108 19.261041 0.918813 -3.459502 29.739624 -0.000002 0.000002 -0.000001 -0.722546 16.245533 23.366156 19.815945 -9.533523 7.818691 -15.203339 -3.111859 -25.847067 -0.393075 0.000006 0.000002 0.000000 -0.000000 -0.000000 -12.629875 -13.434865 -21.405183 33.711642 8.926335 -9.764541 -13.044508 -3.763911 20.574393 -0.951346 0.000001 0.000002 -0.000000 0.000000 -0.000000 
